<?xml version="1.0" encoding="UTF-8" standalone="no"?>
<!DOCTYPE svg PUBLIC "-//W3C//DTD SVG 1.1//EN" "http://www.w3.org/Graphics/SVG/1.1/DTD/svg11.dtd">
<svg width="100%" height="100%" viewBox="0 0 128 128" version="1.1" xmlns="http://www.w3.org/2000/svg" xmlns:xlink="http://www.w3.org/1999/xlink" xml:space="preserve" xmlns:serif="http://www.serif.com/" style="fill-rule:evenodd;clip-rule:evenodd;stroke-linejoin:round;stroke-miterlimit:2;">
    <g transform="matrix(0.303432,0,0,-0.303432,2.73152,122.877)">
        <path d="M57.75,165.555C60.539,131.399 72.066,96.11 79.207,62.531C82.98,44.785 84.949,27.645 99.484,15.031C115.27,1.332 132.277,1.16 152.004,1.16L257.219,1.16C280.695,1.16 301.562,0 319.109,18.449C332.184,32.196 333.582,51.43 337.113,69.11C342.543,96.305 352.453,124.672 353.664,152.403C381.227,157.149 406.141,182.078 403.668,211.586C402.723,222.821 395.793,231.543 393.723,242.274C391.523,253.656 393.402,264.156 388.32,275.153C382.254,288.289 369.883,294.742 361.777,306.035C348.832,324.086 344.789,342.227 322.977,353.235C308.668,360.461 292.777,356.653 279.137,362.805C256.484,373.02 242.203,386.926 215.57,386.926C196.742,386.926 184.586,375.977 167.348,372.215C151.816,368.832 137.48,374.645 121.316,368.383C106.172,362.516 99.012,348.949 85.785,342.031C69.68,333.606 54.496,331.184 43.641,314.524C36.992,304.324 38.805,292.672 33.777,282.356C17.449,248.856 -31.98,188.059 31.445,167.875C40,165.153 48.891,165.555 57.75,165.555M270.371,347.488L246.258,323.375C274.98,342.996 304.844,361.121 333.215,327.727C341.078,318.469 343.328,306.637 350.398,297.16C368.484,272.914 392.477,255.633 369.008,224.738C415.41,229.496 372.098,151.184 348.449,170.031C341.863,175.281 351.512,191.18 351.152,198.434C350.5,211.707 340.391,222.25 331.746,231.313L331.746,233.504L347.086,242.274L347.086,244.465L309.824,235.938L246.258,248.848C246.258,257.106 242.48,273.828 248.227,280.406C257.879,291.457 294.434,280.024 305.441,275.153C285.984,295.793 259.801,277.637 240.348,290C220.887,302.367 228.066,335.137 224.34,354.063L222.145,354.063L219.562,319.711L200.227,301.457L224.34,312.418C226.676,291.082 241.805,277.141 240.922,253.352C240.445,240.465 216.273,230.188 209.965,218.16C202.961,204.809 207.855,192.313 204.875,178.707C199.531,154.309 170.211,142.211 147.621,149.891C120.492,159.117 107.875,214.75 145.43,215.969L145.43,222.547L125.699,218.16L127.891,279.535L125.699,279.535C125.688,263.031 115.277,250.922 115.066,235.699C114.82,217.699 126.164,191.059 116.168,173.082C109.469,161.035 73.73,165.832 70.355,179.121C68.133,187.864 78.844,205.543 79.668,215.969C69.242,206.871 70.738,190.469 59.527,182.778C36.418,166.93 8.246,196.856 14.859,220.321C22.918,248.891 41.957,221.364 44.598,207.203L46.789,207.203C46.887,234.399 71.004,226.539 88.113,241.426C95.578,247.922 96.566,259.516 99.398,268.578C88.621,259.172 86.859,244.871 73.086,237.891C63.191,232.875 48.043,230.977 38.523,237.91C27.785,245.727 31.707,262.668 42.527,268.516C48.863,271.942 57.375,270.77 64.324,270.77L64.324,275.153C39.133,277.992 51.234,306.266 64.73,317.262C73.738,324.606 85.207,325.914 94.641,332C101.762,336.594 105.992,344.477 112.922,349.387C127.355,359.614 144.02,358.446 160.773,358.446L160.773,356.254L132.277,345.297L132.277,338.719C155.852,338.93 165.699,354.684 184.883,365.231C213.195,380.797 251.535,373.985 270.371,347.488M79.668,299.266C99.539,307.199 121.234,314.09 127.891,286.114L130.086,286.114C134.184,297.364 143.703,299.598 154.195,303.649C158.109,290.102 164.523,281.449 178.309,277.344C167.094,297.047 152.777,319.004 184.883,329.953L182.691,336.528C165.438,330.496 162.098,312.09 147.391,306.133C122.98,296.25 98.562,333.793 79.668,299.266M99.398,325.567L99.398,323.375L108.164,318.992L99.398,325.567M276.945,325.567L274.754,312.418C308.438,302.367 324.984,294.012 347.086,264.192L349.281,264.192C341.609,297.614 312.773,314.61 281.328,314.61L281.328,325.567L276.945,325.567M182.691,277.344L182.691,275.153L193.652,270.77C192.215,277.465 189.254,277.203 182.691,277.344M158.578,259.809C155.398,245.418 168.512,246.102 171.254,234.649C174.703,220.238 163.93,196.203 158.578,183.09C175.539,191.965 171.301,213.715 179.25,228.746C185.477,240.528 200.242,246.778 211.188,253.235C198.582,261.559 192.727,245.231 180.871,243.231C171.469,241.645 163.098,253.192 158.578,259.809M204.609,255.426L202.418,253.235L204.609,255.426M312.016,196.242C320.18,205.231 314.465,216.235 312.016,226.93C339.785,228.297 356.699,194.828 337.195,172.738C325.449,159.438 298.75,160.93 283.52,165.555L290.098,189.668C283.012,182.153 279.77,171.91 272.094,164.832C253.355,147.539 225.422,147.305 202.418,154.594C204.223,162.293 209.035,168.797 210.578,176.516C214.406,195.641 207.531,213.473 224.543,228.289C255.117,254.91 311.633,239.371 312.016,196.242M265.984,215.969C257.664,207.957 251.539,192.27 265.984,187.477L265.984,215.969M77.477,156.789C91.012,151.719 111.457,158.918 122.488,152.336C142.973,140.114 145.891,80.031 147.621,58.149L149.812,58.149L152.004,134.867L198.035,141.446L204.609,66.918L206.801,66.918L213.379,134.867L259.41,141.446L259.41,64.727L261.602,64.727L279.137,150.211L338.32,152.403C334.336,121.539 326.898,90.75 320.324,60.34C317.273,46.223 314.105,29.899 300.852,21.692C281.625,9.785 246.23,16.504 224.34,16.504C195.062,16.5 143.516,6.227 116.941,19.696C89.414,33.649 85.883,94.309 80.93,121.715C78.965,132.598 73.344,146.199 77.477,156.789Z" style="fill:rgb(209,3,177);fill-rule:nonzero;"/>
    </g>
</svg>
